<?xml version="1.0" standalone="no"?>
<!DOCTYPE svg PUBLIC "-//W3C//DTD SVG 20010904//EN"
 "http://www.w3.org/TR/2001/REC-SVG-20010904/DTD/svg10.dtd">
<svg version="1.0" xmlns="http://www.w3.org/2000/svg"
 width="300.000000pt" height="300.000000pt" viewBox="0 0 300.000000 300.000000"
 preserveAspectRatio="xMidYMid meet">
<metadata>
Created by potrace 1.10, written by Peter Selinger 2001-2011
</metadata>
<g transform="translate(0.000000,300.000000) scale(0.100000,-0.100000)"
fill="#ef3b2c" stroke="none">
<path d="M778 2228 c-398 -397 -729 -731 -736 -740 -12 -16 33 -64 436 -468
248 -247 455 -450 461 -450 8 0 11 194 11 679 0 462 3 682 10 686 6 4 17 1 25
-5 22 -18 115 -40 172 -40 64 0 150 18 180 37 12 8 27 12 32 8 7 -4 10 -302
10 -893 0 -488 0 -895 0 -904 1 -10 28 -45 62 -79 53 -53 62 -59 77 -47 41 31
562 558 562 568 0 6 -23 10 -54 10 -137 0 -299 92 -363 207 -7 12 -22 48 -33
80 -20 56 -20 78 -20 1013 l0 955 -38 40 c-20 23 -45 47 -54 54 -16 12 -97
-66 -740 -711z m524 197 c21 -14 52 -47 68 -73 27 -42 30 -55 30 -130 0 -92
-12 -125 -64 -180 -87 -93 -255 -97 -341 -8 -65 66 -77 98 -73 189 3 73 7 87
37 133 32 48 84 86 136 98 11 3 54 3 95 0 58 -3 83 -10 112 -29z"/>
<path d="M2036 2413 c-3 -4 -6 -71 -6 -150 l0 -143 150 0 c83 0 150 3 150 7 0
12 -288 292 -294 286z"/>
<path d="M2048 1929 c-17 -9 -18 -43 -18 -483 0 -517 0 -517 58 -579 43 -46
94 -67 162 -67 l62 0 321 323 c177 177 328 330 335 339 12 15 -10 41 -200 231
-117 117 -224 221 -238 230 -21 13 -63 15 -245 16 -135 0 -227 -3 -237 -10z"/>
</g>
</svg>
